<svg width="140" height="88" viewBox="0 0 140 88" fill="none" xmlns="http://www.w3.org/2000/svg" xmlns:xlink="http://www.w3.org/1999/xlink">
<path d="M91.27,42.208L93.827,48.108C94.299,49.196 95.6,49.71 96.736,49.259C97.873,48.811 98.412,47.566 97.941,46.478L95.384,40.579L91.27,42.208Z" fill="#333333"/>
<path d="M92.975,46.141L97.089,44.512L92.975,46.141Z" fill="#333333"/>
<path d="M85.874,29.754L91.693,32.057L85.874,29.754Z" fill="#333333"/>
<path d="M89.041,17.793C89.041,20.928 86.383,23.47 83.106,23.47C79.826,23.47 77.168,20.928 77.168,17.793C77.168,14.658 79.826,12.118 83.106,12.118C86.382,12.118 89.041,14.658 89.041,17.793Z" fill="#333333"/>
<path d="M86.072,17.793C86.072,19.362 84.744,20.633 83.105,20.633C81.465,20.633 80.134,19.362 80.134,17.793C80.134,16.226 81.465,14.955 83.105,14.955C84.744,14.954 86.072,16.226 86.072,17.793Z" fill="#333333"/>
<path d="M78.941,21.839L70.82,40.58L68.784,48.99L70.155,49.533L74.935,42.209L76.073,39.587C75.185,37.538 76.202,35.188 78.345,34.341L83.054,23.468C81.452,23.455 80.003,22.837 78.941,21.839Z" fill="#333333"/>
<path d="M87.266,21.838C86.204,22.837 84.753,23.455 83.151,23.467L90.137,39.584L94.25,37.956L87.266,21.838Z" fill="#333333"/>
<path d="M85.331,9.279L85.331,2.892C85.33,1.715 84.33,0.763 83.104,0.763C81.874,0.763 80.878,1.714 80.877,2.892L80.878,9.279L85.331,9.279Z" fill="#333333"/>
<path d="M83.105,12.118C83.485,12.118 83.857,12.154 84.217,12.22L84.217,9.28L81.991,9.28L81.991,12.22C82.352,12.154 82.722,12.118 83.105,12.118Z" fill="#333333"/>
<path d="M52.191,51.881L44.786,51.881L44.786,0.762L52.193,0.762C53.829,0.762 55.155,2.034 55.155,3.603L55.155,49.043L55.154,49.043C55.154,50.612 53.828,51.881 52.191,51.881Z" fill="#333333"/>
<line x1="44.786" y1="2.892" x2="47.007" y2="2.892" fill="#333333"/>
<line x1="44.786" y1="5.022" x2="47.007" y2="5.022" fill="#333333"/>
<line x1="44.786" y1="7.152" x2="47.007" y2="7.152" fill="#333333"/>
<line x1="44.786" y1="9.282" x2="48.489" y2="9.282" fill="#333333"/>
<line x1="44.786" y1="11.413" x2="47.007" y2="11.413" fill="#333333"/>
<line x1="44.786" y1="13.543" x2="47.007" y2="13.543" fill="#333333"/>
<line x1="44.786" y1="15.673" x2="47.007" y2="15.673" fill="#333333"/>
<line x1="44.786" y1="17.803" x2="48.489" y2="17.803" fill="#333333"/>
<line x1="44.786" y1="19.933" x2="47.007" y2="19.933" fill="#333333"/>
<line x1="44.786" y1="22.063" x2="47.007" y2="22.063" fill="#333333"/>
<line x1="44.786" y1="24.193" x2="47.007" y2="24.193" fill="#333333"/>
<line x1="44.786" y1="26.323" x2="48.489" y2="26.323" fill="#333333"/>
<line x1="44.786" y1="28.452" x2="47.007" y2="28.452" fill="#333333"/>
<line x1="44.786" y1="30.583" x2="47.007" y2="30.583" fill="#333333"/>
<line x1="44.786" y1="32.712" x2="47.007" y2="32.712" fill="#333333"/>
<line x1="44.786" y1="34.842" x2="48.489" y2="34.842" fill="#333333"/>
<line x1="44.786" y1="36.972" x2="47.007" y2="36.972" fill="#333333"/>
<line x1="44.786" y1="39.103" x2="47.007" y2="39.103" fill="#333333"/>
<line x1="44.786" y1="41.232" x2="47.007" y2="41.232" fill="#333333"/>
<line x1="44.786" y1="43.362" x2="48.489" y2="43.362" fill="#333333"/>
<line x1="44.786" y1="45.492" x2="47.007" y2="45.492" fill="#333333"/>
<line x1="44.786" y1="47.622" x2="47.007" y2="47.622" fill="#333333"/>
<line x1="44.786" y1="49.752" x2="47.007" y2="49.752" fill="#333333"/>
<path d="M51.822,5.023C52.436,5.023 52.933,4.546 52.933,3.957C52.933,3.369 52.436,2.892 51.822,2.892C51.208,2.892 50.711,3.369 50.711,3.957C50.711,4.546 51.208,5.023 51.822,5.023Z" fill="#333333"/>
<line x1="62.56" y1="7.863" x2="62.56" y2="30.939" fill="#333333"/>
<path d="M60.339,30.939C60.339,31.525 60.837,32.004 61.45,32.004C62.064,32.004 62.561,31.525 62.561,30.939C62.561,31.525 63.06,32.004 63.672,32.004C64.286,32.004 64.783,31.525 64.783,30.939C64.783,31.525 64.286,32.004 63.672,32.004C63.06,32.004 62.561,31.525 62.561,30.939C62.561,31.525 62.064,32.004 61.45,32.004C60.837,32.004 60.339,31.525 60.339,30.939Z" fill="#333333"/>
<path d="M61.821,0.762C61.003,0.762 60.339,1.399 60.339,2.183L60.339,2.183L60.339,32.003L62.561,40.523L64.783,32.003L64.783,2.182L64.783,2.183C64.783,1.399 64.119,0.762 63.301,0.762L61.821,0.762Z" fill="#333333"/>
<line x1="60.339" y1="5.022" x2="64.783" y2="5.022" fill="#333333"/>
<line x1="60.339" y1="7.863" x2="64.783" y2="7.863" fill="#333333"/>
<path d="M137.103,62.81L0,62.81L0,87.714L137.103,87.714L137.103,62.81Z" fill="url(#pattern_0_0_202)"/>
</svg>
