<svg width="36" height="18" viewBox="0 0 36 18" fill="none" xmlns="http://www.w3.org/2000/svg" xmlns:xlink="http://www.w3.org/1999/xlink">
<path d="M-0.13,9C-0.13,8.448 0.318,8 0.87,8L32.87,8C33.423,8 33.87,8.448 33.87,9C33.87,9.552 33.423,10 32.87,10L0.87,10C0.318,10 -0.13,9.552 -0.13,9Z" clip-rule="evenodd" fill-rule="evenodd" transform="rotate(0 16.87 9)" fill="#333333"/>
<path d="M25.163,1.293C25.554,0.902 26.187,0.902 26.578,1.293L34.285,9L26.578,16.707C26.187,17.098 25.554,17.098 25.163,16.707C24.773,16.317 24.773,15.683 25.163,15.293L31.456,9L25.163,2.707C24.773,2.317 24.773,1.683 25.163,1.293Z" clip-rule="evenodd" fill-rule="evenodd" fill="#333333"/>
</svg>
