<svg width="34" height="18" viewBox="0 0 34 18" fill="none" xmlns="http://www.w3.org/2000/svg" xmlns:xlink="http://www.w3.org/1999/xlink">
<path d="M0,9C0,8.448 0.448,8 1,8L33,8C33.552,8 34,8.448 34,9C34,9.552 33.552,10 33,10L1,10C0.448,10 0,9.552 0,9Z" clip-rule="evenodd" fill-rule="evenodd" transform="rotate(-360 17 9)" fill="#333333"/>
<path d="M-0.121,1.293C0.269,0.902 0.902,0.902 1.293,1.293L9,9L1.293,16.707C0.902,17.098 0.269,17.098 -0.121,16.707C-0.512,16.317 -0.512,15.683 -0.121,15.293L6.172,9L-0.121,2.707C-0.512,2.317 -0.512,1.683 -0.121,1.293Z" clip-rule="evenodd" fill-rule="evenodd" transform="rotate(360 4.293 9)" fill="#333333"/>
</svg>
