<svg width="36" height="16" viewBox="0 0 36 16" fill="none" xmlns="http://www.w3.org/2000/svg" xmlns:xlink="http://www.w3.org/1999/xlink">
<path d="M0,7C0,6.448 0.448,6 1,6L33,6C33.552,6 34,6.448 34,7C34,7.552 33.552,8 33,8L1,8C0.448,8 0,7.552 0,7Z" clip-rule="evenodd" fill-rule="evenodd" transform="rotate(0 17 7)" fill="#FFFFFF"/>
<path d="M25.293,-0.707C25.683,-1.098 26.317,-1.098 26.707,-0.707L34.414,7L26.707,14.707C26.317,15.098 25.683,15.098 25.293,14.707C24.902,14.317 24.902,13.683 25.293,13.293L31.586,7L25.293,0.707C24.902,0.317 24.902,-0.317 25.293,-0.707Z" clip-rule="evenodd" fill-rule="evenodd" fill="#FFFFFF"/>
</svg>
