<svg width="36" height="18" viewBox="0 0 36 18" fill="none" xmlns="http://www.w3.org/2000/svg" xmlns:xlink="http://www.w3.org/1999/xlink">
<path d="M0,9C0,8.447 0.448,8 1,8L33,8C33.552,8 34,8.447 34,9C34,9.552 33.552,10 33,10L1,10C0.448,10 0,9.552 0,9Z" clip-rule="evenodd" fill-rule="evenodd" transform="rotate(0 17 9)" fill="#FFFFFF"/>
<path d="M25.293,1.292C25.683,0.902 26.317,0.902 26.707,1.292L34.414,9L26.707,16.707C26.317,17.097 25.683,17.097 25.293,16.707C24.902,16.316 24.902,15.683 25.293,15.292L31.586,9L25.293,2.707C24.902,2.316 24.902,1.683 25.293,1.292Z" clip-rule="evenodd" fill-rule="evenodd" fill="#FFFFFF"/>
</svg>
