<svg width="28" height="38" viewBox="0 0 28 38" fill="none" xmlns="http://www.w3.org/2000/svg" xmlns:xlink="http://www.w3.org/1999/xlink">
<path d="M14.848,0C4.978,0 0.002,7.044 0.002,12.92C0.002,16.476 1.354,19.64 4.256,20.82C4.732,21.014 5.158,20.826 5.296,20.302C5.392,19.94 5.62,19.024 5.72,18.642C5.86,18.124 5.806,17.942 5.422,17.49C4.584,16.508 4.05,15.236 4.05,13.434C4.05,8.208 7.978,3.53 14.278,3.53C19.856,3.53 22.92,6.924 22.92,11.454C22.92,17.418 20.27,22.45 16.334,22.45C14.162,22.45 12.536,20.66 13.056,18.466C13.682,15.848 14.89,13.02 14.89,11.128C14.89,9.436 13.978,8.024 12.088,8.024C9.868,8.024 8.084,10.312 8.084,13.376C8.084,15.33 8.746,16.65 8.746,16.65C8.746,16.65 6.472,26.238 6.074,27.918C5.28,31.262 5.956,35.362 6.012,35.778C6.046,36.022 6.362,36.08 6.506,35.896C6.71,35.628 9.356,32.378 10.256,29.128C10.51,28.208 11.716,23.444 11.716,23.444C12.438,24.814 14.548,26.022 16.79,26.022C23.468,26.022 27.998,19.96 27.998,11.848C27.998,5.714 22.78,0 14.848,0Z" clip-rule="evenodd" fill-rule="evenodd" fill="#FFFFFF"/>
</svg>
