<svg width="40" height="38" viewBox="0 0 40 38" fill="none" xmlns="http://www.w3.org/2000/svg" xmlns:xlink="http://www.w3.org/1999/xlink">
<path d="M37.024,36.026L2.976,36.026C1.344,36.026 0.022,34.868 0.022,33.44L0.022,2.564C0.022,1.138 1.344,-0.02 2.976,-0.02L37.024,-0.02C38.654,-0.02 39.976,1.138 39.976,2.564L39.976,33.44C39.976,34.868 38.654,36.026 37.024,36.026L37.024,36.026ZM6.946,30.088L12.83,30.088L12.83,13.814L6.946,13.814L6.946,30.088ZM9.928,5.97C7.914,5.97 6.6,7.184 6.6,8.782C6.6,10.342 7.876,11.594 9.85,11.594L9.888,11.594C11.94,11.594 13.216,10.342 13.216,8.782C13.18,7.184 11.94,5.97 9.928,5.97ZM34.046,20.758C34.046,15.758 31.142,13.432 27.272,13.432C24.148,13.432 22.752,15.01 21.97,16.12L21.97,13.814L16.086,13.814C16.164,15.342 16.086,30.088 16.086,30.088L21.97,30.088L21.97,21C21.97,20.516 22.008,20.028 22.164,19.682C22.588,18.71 23.558,17.704 25.182,17.704C27.312,17.704 28.162,19.196 28.162,21.384L28.162,30.088L34.046,30.088L34.046,20.758L34.046,20.758ZM21.93,16.174C21.942,16.156 21.958,16.138 21.97,16.12L21.97,16.174L21.93,16.174Z" clip-rule="evenodd" fill-rule="evenodd" fill="#FFFFFF"/>
</svg>
