<svg width="44" height="34" viewBox="0 0 44 34" fill="none" xmlns="http://www.w3.org/2000/svg" xmlns:xlink="http://www.w3.org/1999/xlink">
<path d="M42.016,3.792C40.47,4.436 38.808,4.866 37.066,5.062C38.846,4.062 40.212,2.478 40.856,0.594C39.188,1.518 37.344,2.19 35.38,2.554C33.81,0.982 31.568,0.002 29.09,0.002C24.33,0.002 20.468,3.62 20.468,8.08C20.468,8.714 20.544,9.332 20.692,9.922C13.528,9.584 7.176,6.368 2.924,1.482C2.182,2.676 1.758,4.062 1.758,5.544C1.758,8.344 3.28,10.82 5.592,12.268C4.18,12.224 2.852,11.862 1.688,11.256C1.688,11.292 1.688,11.322 1.688,11.36C1.688,15.274 4.658,18.538 8.602,19.28C7.88,19.464 7.116,19.56 6.332,19.56C5.776,19.56 5.236,19.512 4.71,19.42C5.806,22.626 8.99,24.964 12.762,25.03C9.812,27.196 6.096,28.486 2.056,28.486C1.36,28.486 0.674,28.448 0,28.374C3.814,30.664 8.346,32.004 13.214,32.004C29.07,32.004 37.74,19.692 37.74,9.018C37.74,8.666 37.73,8.32 37.714,7.972C39.398,6.832 40.86,5.41 42.016,3.792L42.016,3.792Z" clip-rule="evenodd" fill-rule="evenodd" fill="#FFFFFF"/>
</svg>
