<svg width="32" height="22" viewBox="0 0 32 22" fill="none" xmlns="http://www.w3.org/2000/svg" xmlns:xlink="http://www.w3.org/1999/xlink">
<path d="M16.04,13.194L16.047,13.194C16.288,13.194 16.527,13.122 16.72,12.991L16.772,12.956C16.783,12.949 16.795,12.942 16.807,12.934L17.417,12.415L31.966,0.072C31.936,0.029 31.885,0 31.83,0L0.169,0C0.13,0 0.093,0.015 0.064,0.039L15.287,12.938C15.478,13.101 15.752,13.194 16.04,13.194ZM0,1.749L0,20.045L10.905,10.989L0,1.749ZM21.107,11.051L32,20.05L32,1.81L21.107,11.051ZM17.643,13.988C17.209,14.354 16.641,14.556 16.045,14.556C15.446,14.556 14.878,14.355 14.445,13.991L11.948,11.873L0,21.794L0,21.826C0,21.92 0.079,22 0.171,22L31.831,22C31.922,22 32,21.92 32,21.825L32,21.796L20.062,11.935L17.643,13.988Z" stroke="#FFFFFF" stroke-width="0.8" stroke-miterlimit="3.999327"/>
</svg>
