<svg width="34" height="32" viewBox="0 0 34 32" fill="none" xmlns="http://www.w3.org/2000/svg" xmlns:xlink="http://www.w3.org/1999/xlink">
<path d="M32.006,25.254C32.073,25.774 31.915,26.226 31.531,26.61L27.023,31.084C26.819,31.31 26.554,31.503 26.226,31.661C25.898,31.819 25.576,31.921 25.26,31.966C25.237,31.966 25.17,31.972 25.056,31.983C24.944,31.994 24.797,32 24.616,32C24.186,32 23.491,31.927 22.531,31.78C21.571,31.633 20.396,31.271 19.006,30.695C17.616,30.119 16.04,29.254 14.277,28.102C12.514,26.949 10.638,25.367 8.65,23.356C7.068,21.797 5.757,20.305 4.718,18.881C3.678,17.458 2.842,16.141 2.209,14.932C1.576,13.723 1.102,12.627 0.785,11.644C0.469,10.661 0.254,9.814 0.141,9.102C0.028,8.39 -0.017,7.83 0.006,7.424C0.028,7.017 0.04,6.791 0.04,6.746C0.085,6.429 0.186,6.107 0.345,5.78C0.503,5.452 0.695,5.186 0.921,4.983L5.429,0.475C5.746,0.158 6.107,0 6.514,0C6.808,0 7.068,0.085 7.294,0.254C7.52,0.424 7.712,0.633 7.87,0.881L11.497,7.763C11.701,8.124 11.757,8.52 11.667,8.949C11.576,9.378 11.384,9.74 11.09,10.034L9.429,11.695C9.384,11.74 9.345,11.814 9.311,11.915C9.277,12.017 9.26,12.102 9.26,12.169C9.35,12.644 9.554,13.186 9.87,13.797C10.141,14.339 10.559,15 11.124,15.78C11.689,16.559 12.492,17.458 13.531,18.474C14.548,19.514 15.452,20.322 16.243,20.898C17.034,21.474 17.695,21.898 18.226,22.169C18.757,22.441 19.164,22.604 19.446,22.661L19.87,22.746C19.915,22.746 19.989,22.729 20.09,22.695C20.192,22.661 20.265,22.621 20.311,22.576L22.243,20.61C22.65,20.248 23.124,20.068 23.667,20.068C24.051,20.068 24.356,20.135 24.582,20.271L24.616,20.271L31.158,24.135C31.633,24.429 31.915,24.802 32.006,25.254Z" stroke="#FFFFFF" stroke-width="1" stroke-miterlimit="3.999327"/>
</svg>
